# xmcd
#
# Track frame offsets:
#	150
#	11917
#	26222
#	40095
#	57555
#	70425
#	84057
#	99647
#	114915
#	127352
#
# Disc length: 1912 seconds
#
# Revision: 4
# Processed by: cddbd v1.5.2PL0 Copyright (c) Steve Scherf et al.
# Submitted via: audiograbber 1.83.01
#
DISCID=8a07760a
DTITLE=Strait, George - Easy Come Easy Go
DYEAR=1993
DGENRE=Country
TTITLE0=Stay Out of my Arms
TTITLE1=Just Look at Me
TTITLE2=Easy Come, Easy Go
TTITLE3=I'd Like to Have that One Back
TTITLE4=Lovebug
TTITLE5=I wasn't Fooling Around
TTITLE6=Without Me Around
TTITLE7=The Man in Love with You
TTITLE8=That's Where My Baby Feels at Home
TTITLE9=We Must Be Loving Right
EXTD=
EXTT0=
EXTT1=
EXTT2=
EXTT3=
EXTT4=
EXTT5=
EXTT6=
EXTT7=
EXTT8=
EXTT9=
PLAYORDER=
